<?xml version="1.0" encoding="UTF-8"?>
<svg width="50px" height="50px" viewBox="0 0 50 50" version="1.1" xmlns="http://www.w3.org/2000/svg" xmlns:xlink="http://www.w3.org/1999/xlink">
    <!-- Generator: Sketch 47 (45396) - http://www.bohemiancoding.com/sketch -->
    <title>产业联盟</title>
    <desc>Created with Sketch.</desc>
    <defs></defs>
    <g id="Page-1" stroke="none" stroke-width="1" fill="none" fill-rule="evenodd">
        <g id="首页" transform="translate(-509.000000, -7002.000000)" fill-rule="nonzero" fill="#90A2C7">
            <g id="订单-(1)" transform="translate(509.000000, 7002.000000)">
                <path d="M21.6184321,6.65975056 L28.3533987,6.65975056 C29.0766592,6.65975056 29.6629755,6.0734343 29.6629755,5.35017372 C29.6629755,4.62691314 29.0766592,4.04059688 28.3533987,4.04059688 L21.6184321,4.04059688 C20.8951715,4.04059688 20.3088552,4.62691314 20.3088552,5.35017372 C20.3088552,6.0734343 20.8951715,6.65975056 21.6184321,6.65975056 L21.6184321,6.65975056 Z M32.6845434,16.2890223 L16.5954566,16.2890223 C15.872196,16.2890223 15.2858797,16.8753385 15.2858797,17.5985991 C15.2858797,18.3218597 15.872196,18.9081759 16.5954566,18.9081759 L32.6845434,18.9081759 C33.407804,18.9081759 33.9941203,18.3218597 33.9941203,17.5985991 C33.9941203,16.8753385 33.407804,16.2890223 32.6845434,16.2890223 Z M32.6845434,23.6545501 L16.5954566,23.6545501 C15.872196,23.6545501 15.2858797,24.2408664 15.2858797,24.9641269 C15.2858797,25.6873875 15.872196,26.2737038 16.5954566,26.2737038 L32.6845434,26.2737038 C33.407804,26.2737038 33.9941203,25.6873875 33.9941203,24.9641269 C33.9941203,24.2408664 33.407804,23.6545501 32.6845434,23.6545501 L32.6845434,23.6545501 Z M32.6845434,31.020078 L16.5954566,31.020078 C15.872196,31.020078 15.2858797,31.6063942 15.2858797,32.3296548 C15.2858797,33.0529154 15.872196,33.6392316 16.5954566,33.6392316 L32.6845434,33.6392316 C33.407804,33.6392316 33.9941203,33.0529154 33.9941203,32.3296548 C33.9941203,31.606441 33.407804,31.020078 32.6845434,31.020078 Z" id="Shape"></path>
                <path d="M38.7631314,4.05720045 L35.9311715,4.05720045 L35.9311715,4.05729399 L35.9276637,4.05720045 C35.2044031,4.05720045 34.6180869,4.6435167 34.6180869,5.36677728 C34.6180869,6.09003786 35.2044031,6.67635412 35.9276637,6.67635412 L35.9311715,6.67626058 L35.9311715,6.67635412 L38.7631314,6.67635412 C39.1832249,6.67635412 39.5812895,6.84304454 39.8839889,7.14574388 C40.1866414,7.44839644 40.3533318,7.84646102 40.3533318,8.26655457 L40.3533318,41.7543051 C40.3533318,42.1743987 40.1866414,42.5724633 39.8839889,42.8751158 C39.5813363,43.1777684 39.1832717,43.3445056 38.7631314,43.3445056 L11.2105234,43.3445056 C10.7904298,43.3445056 10.3923653,43.1778151 10.0896659,42.8751158 C9.78696659,42.5724165 9.62032294,42.1743987 9.62032294,41.7543051 L9.62032294,8.26655457 C9.62032294,7.84646102 9.78701336,7.44839644 10.0896659,7.14574388 C10.3923185,6.84304454 10.7903831,6.67635412 11.2105234,6.67635412 L14.0424833,6.67635412 L14.0424833,6.67626058 L14.0467394,6.67635412 C14.77,6.67635412 15.3563163,6.09003786 15.3563163,5.36677728 C15.3563163,4.6435167 14.77,4.05720045 14.0467394,4.05720045 L14.0424833,4.05729399 L14.0424833,4.05720045 L11.2105234,4.05720045 C8.89537862,4.05720045 7.00116927,5.9514098 7.00116927,8.26655457 L7.00116927,41.7543051 C7.00116927,44.0694499 8.89537862,45.9636592 11.2105234,45.9636592 L38.7631314,45.9636592 C41.0782762,45.9636592 42.9724855,44.0694499 42.9724855,41.7543051 L42.9724855,8.26655457 C42.9724855,5.9514098 41.0782762,4.05720045 38.7631314,4.05720045 Z" id="Shape"></path>
            </g>
        </g>
    </g>
</svg>