<?xml version="1.0" encoding="UTF-8"?>
<svg width="50px" height="50px" viewBox="0 0 50 50" version="1.1" xmlns="http://www.w3.org/2000/svg" xmlns:xlink="http://www.w3.org/1999/xlink">
    <!-- Generator: Sketch 47 (45396) - http://www.bohemiancoding.com/sketch -->
    <title>扶뒬못</title>
    <desc>Created with Sketch.</desc>
    <defs></defs>
    <g id="Page-1" stroke="none" stroke-width="1" fill="none" fill-rule="evenodd">
        <g id="扶뒬못" transform="translate(-47.000000, -7001.000000)" stroke="#2787FD" stroke-width="3" fill-rule="nonzero">
            <g transform="translate(47.000000, 7001.000000)" id="Shape">
                <path d="M35.0204796,46 L29.649762,46 C28.9529647,46 28.4552524,45.4084507 28.4552524,44.8169014 L28.4552524,31.2112676 L21.4781293,31.2112676 L21.4781293,44.8169014 C21.4781293,45.5070422 20.8808746,46 20.2836198,46 L14.9129022,46 C11.6280009,46 8.94035446,43.0422535 8.94035446,39.4929577 L8.94035446,28.6478873 L7.94492986,28.6478873 C6.25270799,28.6478873 4.85911355,27.8591549 4.26185878,26.3802817 C3.76414645,25.1971831 3.86368894,23.3239437 5.55591077,21.4507042 L20.5868225,5.87323942 C21.7813321,4.69014083 23.3740115,4 24.9666909,4 C26.6589128,4 28.2515921,4.69014083 29.3465592,5.87323942 L44.377471,21.5492958 C46.1692353,23.4225352 46.2687778,25.2957746 45.671523,26.4788732 C45.0742682,27.9577465 43.6806737,28.7464789 41.9884519,28.7464789 L40.9930273,28.7464789 L40.9930273,39.5915493 C40.9930273,43.1408451 38.4049233,46 35.0204796,46 Z"></path>
            </g>
        </g>
    </g>
</svg>