<?xml version="1.0" encoding="UTF-8"?>
<svg width="50px" height="50px" viewBox="0 0 50 50" version="1.1" xmlns="http://www.w3.org/2000/svg" xmlns:xlink="http://www.w3.org/1999/xlink">
    <!-- Generator: Sketch 47 (45396) - http://www.bohemiancoding.com/sketch -->
    <title>管理中心</title>
    <desc>Created with Sketch.</desc>
    <defs></defs>
    <g id="Page-1" stroke="none" stroke-width="1" fill="none" fill-rule="evenodd">
        <g id="首页" transform="translate(-651.000000, -7001.000000)" fill-rule="nonzero" fill="#90A2C7">
            <g id="个人中心-我的" transform="translate(651.000000, 7001.000000)">
                <path d="M29.7287537,46 L21.3035044,46 C13.3118117,46 7,46 7,41.8814541 L7,41.057553 C7,33.3388494 13.4173628,27.0601129 21.3035044,27.0601129 L29.7285122,27.0601129 C37.6146537,27.0601129 44.0322581,33.3388494 44.0322581,41.057553 L44.0322581,41.8814541 C44.0308089,46 37.4016192,46 29.7287537,46 L29.7287537,46 Z M21.3020552,29.5289365 C14.7866289,29.5289365 9.48491962,34.6996183 9.48491962,41.056113 L9.48491962,41.8797742 C9.48491962,43.5282965 16.3143424,43.5282965 21.3020552,43.5282965 L29.7273045,43.5282965 C33.8561163,43.5282965 41.5446816,43.5282965 41.5446816,41.8797742 L41.5446816,41.056113 C41.5446816,34.6996183 36.2427308,29.5289365 29.7273045,29.5289365 L21.3020552,29.5289365 Z M25.0941661,26.2338118 C18.8323523,26.2338118 13.7405376,21.2464858 13.7405376,15.1160659 C13.7405376,8.98588603 18.8325938,4 25.0941661,4 C31.3557384,4 36.4477946,8.98588603 36.4477946,15.1160659 C36.4477946,21.2464858 31.3545307,26.2338118 25.0941661,26.2338118 Z M16.2269064,15.1160659 C16.2269064,19.883077 20.2047584,23.7633083 25.0941661,23.7633082 C29.9840569,23.7633082 33.9616673,19.8845169 33.9616673,15.1160659 C33.9616673,10.3476149 29.9838154,6.47026352 25.0941661,6.47026352 C20.2047583,6.47026352 16.2269064,10.3492949 16.2269064,15.1160659 Z" id="Shape"></path>
            </g>
        </g>
    </g>
</svg>