<?xml version="1.0" encoding="UTF-8"?>
<svg width="50px" height="50px" viewBox="0 0 50 50" version="1.1" xmlns="http://www.w3.org/2000/svg" xmlns:xlink="http://www.w3.org/1999/xlink">
    <!-- Generator: Sketch 47 (45396) - http://www.bohemiancoding.com/sketch -->
    <title>信用商城</title>
    <desc>Created with Sketch.</desc>
    <defs></defs>
    <g id="Page-1" stroke="none" stroke-width="1" fill="none" fill-rule="evenodd">
        <g id="首页" transform="translate(-193.000000, -7001.000000)" fill-rule="nonzero" fill="#90A2C7">
            <g id="商城1" transform="translate(193.000000, 7001.000000)">
                <path d="M36.1220479,6.78675029 C36.6316032,6.78675029 37.1277491,6.88732041 37.594203,7.08855644 C38.0410217,7.2835667 38.4509647,7.560374 38.7986499,7.91236944 C39.1468141,8.26436488 39.4197902,8.6731106 39.6123101,9.13214139 C39.8110559,9.60362372 39.9111471,10.1068096 39.9111471,10.6223512 C39.9111471,10.6662668 39.9111471,10.7103261 39.916894,10.7481596 L41.798992,39.4277902 C41.7927662,39.9244151 41.6931539,40.4090673 41.500634,40.8616328 C41.308114,41.3209031 41.0346591,41.7294094 40.6869738,42.0814048 C40.3392885,42.4334002 39.9355713,42.7102075 39.4820479,42.905122 C39.016073,43.1067412 38.5194481,43.2068324 38.0098928,43.2068324 L11.5062645,43.2068324 C10.9969487,43.2068324 10.4999886,43.1067412 10.0340137,42.905122 C9.58072976,42.7102075 9.17677309,42.4334002 8.82923147,42.0814048 C8.48121095,41.7294094 8.20799544,41.3209031 8.01547548,40.8616328 C7.82295553,40.4090673 7.72358267,39.9244151 7.7173569,39.4277902 L9.60568073,10.7419339 C9.60568073,10.6978746 9.6119065,10.6538153 9.6119065,10.6161254 C9.6119065,10.100488 9.71103991,9.59749373 9.91002509,9.12591562 C10.102545,8.66702851 10.3757605,8.25813911 10.7236853,7.90604789 C11.0713706,7.55395667 11.4751836,7.27738883 11.9286112,7.08223489 C12.3944424,6.88133409 12.8914504,6.78052452 13.4006226,6.78052452 L36.1220958,6.78052452 L36.1220479,6.78675029 Z M24.7612634,23.4509327 C21.845927,23.4509327 19.1049122,22.3017035 17.0434641,20.2147298 C14.982016,18.1276602 13.846675,15.353122 13.846675,12.4017719 C13.846675,12.3886021 13.8468187,12.3755758 13.8470582,12.3625017 L13.8470582,12.3696853 L16.5310832,12.3759111 C16.5310832,12.3869259 16.5310832,12.3977013 16.5309396,12.4087161 C16.5344356,16.9997423 20.2252155,20.7336237 24.7612634,20.7336237 C29.2969761,20.7336237 32.9874208,17.0004607 32.9914914,12.4096739 C32.991252,12.3985154 32.9910125,12.3888415 32.9910125,12.3790239 L35.6752771,12.3667161 L35.6752771,12.3576169 C35.6755165,12.3736602 35.6755165,12.3875485 35.6755165,12.4017719 C35.6755165,15.353122 34.5405108,18.1276602 32.4790627,20.2147298 C30.4173273,22.3015599 27.6765998,23.4509327 24.7612634,23.4509327 Z M36.5966431,4.02562144 L12.9253569,4.02562144 C9.65634892,4.02562144 7.00742759,6.707252 7.00742759,10.0165838 L5.0329008,39.9709647 C5.0329008,43.2806796 7.68182212,45.9620707 10.9508301,45.9620707 L38.5716488,45.9620707 C41.8406568,45.9620707 44.4894823,43.2806796 44.4894823,39.9709647 L42.5144766,10.0165838 C42.5144766,6.707252 39.8656511,4.02562144 36.5966431,4.02562144 L36.5966431,4.02562144 L36.5966431,4.02562144 Z" id="Shape"></path>
            </g>
        </g>
    </g>
</svg>