<?xml version="1.0" encoding="UTF-8"?>
<svg width="80px" height="80px" viewBox="0 0 80 80" version="1.1" xmlns="http://www.w3.org/2000/svg" xmlns:xlink="http://www.w3.org/1999/xlink">
    <!-- Generator: Sketch 47 (45396) - http://www.bohemiancoding.com/sketch -->
    <title>赚码</title>
    <desc>Created with Sketch.</desc>
    <defs></defs>
    <g id="Page-1" stroke="none" stroke-width="1" fill="none" fill-rule="evenodd">
        <g id="首页" transform="translate(-334.000000, -7002.000000)">
            <g id="Group-17" transform="translate(334.000000, 7002.000000)">
                <circle id="Oval-13" fill="#3889FF" cx="40" cy="40" r="40"></circle>
                <g id="扫一扫-(1)" transform="translate(15.000000, 17.000000)" fill-rule="nonzero" fill="#FFFFFF">
                    <path d="M48.9871764,0.00556496492 L36.0597629,0.00556496492 C35.5032664,0.00556496492 35.0525042,0.456327123 35.0525042,1.01282361 C35.0525042,1.56932011 35.5032664,2.02008226 36.0597629,2.02008226 L47.9854827,2.02008226 L47.9854827,14.3464796 C47.9854827,14.902976 48.4362449,15.3537382 48.9927414,15.3537382 C49.5492378,15.3537382 50,14.902976 50,14.3464796 L50,1.01282361 C49.994435,0.456327123 49.5436729,0.00556496492 48.9871764,0.00556496492 L48.9871764,0.00556496492 Z M1.01282361,15.3481732 C1.56932011,15.3481732 2.02008226,14.8974111 2.02008226,14.3409146 L2.02008226,2.0145173 L13.951367,2.0145173 C14.5078635,2.0145173 14.9586257,1.56375514 14.9586257,1.00725865 C14.9586257,0.450762158 14.5078635,0 13.951367,0 L1.01282361,0 C0.456327123,0 0.00556496492,0.450762158 0.00556496492,1.00725865 L0.00556496492,14.3409146 C0.00556496492,14.8974111 0.456327123,15.3481732 1.01282361,15.3481732 Z M13.9458021,43.9854827 L2.0145173,43.9854827 L2.0145173,32.4548754 C2.0145173,31.8983789 1.56375514,31.4476167 1.00725865,31.4476167 C0.450762158,31.4476167 0,31.8983789 0,32.4548754 L0,44.9871764 C0,45.5436729 0.450762158,45.994435 1.00725865,45.994435 L13.9402371,45.994435 C14.4967336,45.994435 14.9474958,45.5436729 14.9474958,44.9871764 C14.9474958,44.4306799 14.5022986,43.9854827 13.9458021,43.9854827 L13.9458021,43.9854827 Z M48.9871764,31.4476167 C48.4306799,31.4476167 47.9799177,31.8983789 47.9799177,32.4548754 L47.9799177,43.9799177 L36.0597629,43.9799177 C35.5032664,43.9799177 35.0525042,44.4306799 35.0525042,44.9871764 C35.0525042,45.5436729 35.5032664,45.994435 36.0597629,45.994435 L48.9927414,45.994435 C49.5492378,45.994435 50,45.5436729 50,44.9871764 L50,32.4548754 C49.994435,31.8983789 49.5436729,31.4476167 48.9871764,31.4476167 L48.9871764,31.4476167 Z" id="Shape"></path>
                </g>
                <text id="赚码" font-family="PingFangSC-Regular, PingFang SC" font-size="20" font-weight="normal" fill="#FFFFFF">
                    <tspan x="20" y="47">赚码</tspan>
                </text>
            </g>
        </g>
    </g>
</svg>